<mxfile host="app.diagrams.net" modified="2024-06-22T21:33:26.264Z" agent="Mozilla/5.0 (X11; Linux x86_64; rv:127.0) Gecko/20100101 Firefox/127.0" etag="BwcwrdIm6e9pbe5fhuqx" version="24.6.2" type="device">
  <diagram name="Page-1" id="c_a97vi2MJUcGRaDY05-">
    <mxGraphModel dx="1144" dy="1072" grid="1" gridSize="10" guides="1" tooltips="1" connect="1" arrows="1" fold="1" page="1" pageScale="1" pageWidth="850" pageHeight="1100" math="0" shadow="0">
      <root>
        <mxCell id="0" />
        <mxCell id="1" parent="0" />
        <mxCell id="UTzLMfKTc_jigOKQ_eSG-71" value="" style="shape=ext;double=1;rounded=0;whiteSpace=wrap;html=1;fillColor=#f5f5f5;gradientColor=#b3b3b3;strokeColor=#666666;gradientDirection=west;opacity=20;" vertex="1" parent="1">
          <mxGeometry x="190" y="480" width="870" height="120" as="geometry" />
        </mxCell>
        <mxCell id="UTzLMfKTc_jigOKQ_eSG-70" value="" style="shape=ext;double=1;rounded=0;whiteSpace=wrap;html=1;fillColor=#e6d0de;gradientColor=#d5739d;strokeColor=#996185;gradientDirection=west;opacity=20;" vertex="1" parent="1">
          <mxGeometry x="190" y="400" width="870" height="60" as="geometry" />
        </mxCell>
        <mxCell id="UTzLMfKTc_jigOKQ_eSG-69" value="" style="shape=ext;double=1;rounded=0;whiteSpace=wrap;html=1;fillColor=#d5e8d4;gradientColor=#97d077;strokeColor=#82b366;gradientDirection=west;opacity=20;" vertex="1" parent="1">
          <mxGeometry x="190" y="260" width="870" height="120" as="geometry" />
        </mxCell>
        <mxCell id="UTzLMfKTc_jigOKQ_eSG-68" value="" style="shape=ext;double=1;rounded=0;whiteSpace=wrap;html=1;fillColor=#ffcd28;gradientColor=#ffa500;strokeColor=#d79b00;gradientDirection=west;opacity=20;" vertex="1" parent="1">
          <mxGeometry x="190" y="40" width="870" height="120" as="geometry" />
        </mxCell>
        <mxCell id="UTzLMfKTc_jigOKQ_eSG-67" value="" style="shape=ext;double=1;rounded=0;whiteSpace=wrap;html=1;fillColor=#dae8fc;gradientColor=#7ea6e0;strokeColor=#6c8ebf;gradientDirection=west;opacity=20;" vertex="1" parent="1">
          <mxGeometry x="190" y="180" width="870" height="60" as="geometry" />
        </mxCell>
        <mxCell id="UTzLMfKTc_jigOKQ_eSG-1" value="&lt;b&gt;&lt;font style=&quot;font-size: 24px;&quot;&gt;Main&lt;/font&gt;&lt;/b&gt;" style="rounded=1;whiteSpace=wrap;html=1;strokeWidth=2;fillWeight=4;hachureGap=8;hachureAngle=45;fillColor=#dae8fc;sketch=1;strokeColor=#6c8ebf;" vertex="1" parent="1">
          <mxGeometry x="60" y="180" width="120" height="60" as="geometry" />
        </mxCell>
        <mxCell id="UTzLMfKTc_jigOKQ_eSG-2" value="&lt;div style=&quot;font-size: 13px;&quot;&gt;&lt;font size=&quot;1&quot;&gt;&lt;b style=&quot;font-size: 24px;&quot;&gt;Hotfix&lt;/b&gt;&lt;/font&gt;&lt;/div&gt;" style="rounded=1;whiteSpace=wrap;html=1;strokeWidth=2;fillWeight=4;hachureGap=8;hachureAngle=45;fillColor=#ffe6cc;sketch=1;strokeColor=#d79b00;" vertex="1" parent="1">
          <mxGeometry x="60" y="40" width="120" height="120" as="geometry" />
        </mxCell>
        <mxCell id="UTzLMfKTc_jigOKQ_eSG-3" value="&lt;font style=&quot;font-size: 24px;&quot;&gt;&lt;b&gt;Release&lt;/b&gt;&lt;/font&gt;" style="rounded=1;whiteSpace=wrap;html=1;strokeWidth=2;fillWeight=4;hachureGap=8;hachureAngle=45;fillColor=#d5e8d4;sketch=1;strokeColor=#82b366;" vertex="1" parent="1">
          <mxGeometry x="60" y="260" width="120" height="120" as="geometry" />
        </mxCell>
        <mxCell id="UTzLMfKTc_jigOKQ_eSG-4" value="&lt;font size=&quot;1&quot;&gt;&lt;b&gt;&lt;font style=&quot;font-size: 24px;&quot;&gt;Develop&lt;/font&gt;&lt;/b&gt;&lt;/font&gt;" style="rounded=1;whiteSpace=wrap;html=1;strokeWidth=2;fillWeight=4;hachureGap=8;hachureAngle=45;fillColor=#e1d5e7;sketch=1;strokeColor=#9673a6;" vertex="1" parent="1">
          <mxGeometry x="60" y="400" width="120" height="60" as="geometry" />
        </mxCell>
        <mxCell id="UTzLMfKTc_jigOKQ_eSG-5" value="&lt;font style=&quot;font-size: 24px;&quot;&gt;&lt;b&gt;Feature&lt;/b&gt;&lt;/font&gt;" style="rounded=1;whiteSpace=wrap;html=1;strokeWidth=2;fillWeight=4;hachureGap=8;hachureAngle=45;fillColor=#f5f5f5;sketch=1;strokeColor=#666666;fontColor=#333333;" vertex="1" parent="1">
          <mxGeometry x="60" y="480" width="120" height="120" as="geometry" />
        </mxCell>
        <mxCell id="UTzLMfKTc_jigOKQ_eSG-7" value="" style="line;strokeWidth=2;html=1;strokeColor=#6c8ebf;fillColor=#dae8fc;" vertex="1" parent="1">
          <mxGeometry x="210" y="205" width="830" height="10" as="geometry" />
        </mxCell>
        <mxCell id="UTzLMfKTc_jigOKQ_eSG-8" value="" style="line;strokeWidth=2;html=1;strokeColor=#9673a6;fillColor=#e1d5e7;" vertex="1" parent="1">
          <mxGeometry x="210" y="425" width="830" height="10" as="geometry" />
        </mxCell>
        <mxCell id="UTzLMfKTc_jigOKQ_eSG-11" value="" style="ellipse;whiteSpace=wrap;html=1;aspect=fixed;fillColor=#dae8fc;strokeColor=#6c8ebf;" vertex="1" parent="1">
          <mxGeometry x="200" y="200" width="20" height="20" as="geometry" />
        </mxCell>
        <mxCell id="UTzLMfKTc_jigOKQ_eSG-12" value="" style="ellipse;whiteSpace=wrap;html=1;aspect=fixed;fillColor=#e1d5e7;strokeColor=#9673a6;" vertex="1" parent="1">
          <mxGeometry x="200" y="420" width="20" height="20" as="geometry" />
        </mxCell>
        <mxCell id="UTzLMfKTc_jigOKQ_eSG-13" value="" style="ellipse;whiteSpace=wrap;html=1;aspect=fixed;fillColor=#f5f5f5;strokeColor=#666666;fontColor=#333333;" vertex="1" parent="1">
          <mxGeometry x="240" y="500" width="20" height="20" as="geometry" />
        </mxCell>
        <mxCell id="UTzLMfKTc_jigOKQ_eSG-14" value="" style="ellipse;whiteSpace=wrap;html=1;aspect=fixed;fillColor=#f5f5f5;strokeColor=#666666;fontColor=#333333;" vertex="1" parent="1">
          <mxGeometry x="220" y="560" width="20" height="20" as="geometry" />
        </mxCell>
        <mxCell id="UTzLMfKTc_jigOKQ_eSG-15" value="" style="endArrow=classic;html=1;rounded=0;fillColor=#e1d5e7;strokeColor=#9673a6;" edge="1" parent="1">
          <mxGeometry width="50" height="50" relative="1" as="geometry">
            <mxPoint x="220" y="450" as="sourcePoint" />
            <mxPoint x="240" y="490" as="targetPoint" />
          </mxGeometry>
        </mxCell>
        <mxCell id="UTzLMfKTc_jigOKQ_eSG-16" value="" style="endArrow=classic;html=1;rounded=0;fillColor=#e1d5e7;strokeColor=#9673a6;" edge="1" parent="1">
          <mxGeometry width="50" height="50" relative="1" as="geometry">
            <mxPoint x="210" y="450" as="sourcePoint" />
            <mxPoint x="230" y="550" as="targetPoint" />
          </mxGeometry>
        </mxCell>
        <mxCell id="UTzLMfKTc_jigOKQ_eSG-20" value="" style="ellipse;whiteSpace=wrap;html=1;aspect=fixed;fillColor=#f5f5f5;strokeColor=#666666;fontColor=#333333;" vertex="1" parent="1">
          <mxGeometry x="400" y="500" width="20" height="20" as="geometry" />
        </mxCell>
        <mxCell id="UTzLMfKTc_jigOKQ_eSG-21" value="" style="ellipse;whiteSpace=wrap;html=1;aspect=fixed;fillColor=#e1d5e7;strokeColor=#9673a6;" vertex="1" parent="1">
          <mxGeometry x="440" y="420" width="20" height="20" as="geometry" />
        </mxCell>
        <mxCell id="UTzLMfKTc_jigOKQ_eSG-22" value="" style="endArrow=classic;html=1;rounded=0;fillColor=#f5f5f5;strokeColor=#666666;" edge="1" parent="1">
          <mxGeometry width="50" height="50" relative="1" as="geometry">
            <mxPoint x="420" y="490" as="sourcePoint" />
            <mxPoint x="440" y="450" as="targetPoint" />
          </mxGeometry>
        </mxCell>
        <mxCell id="UTzLMfKTc_jigOKQ_eSG-23" value="&amp;nbsp;feature/f2&amp;nbsp; " style="line;strokeWidth=2;html=1;strokeColor=#666666;fillColor=#f5f5f5;fontColor=#333333;verticalAlign=middle;spacingLeft=15;labelBorderColor=none;align=left;spacingBottom=25;labelBackgroundColor=none;" vertex="1" parent="1">
          <mxGeometry x="260" y="505" width="140" height="10" as="geometry" />
        </mxCell>
        <mxCell id="UTzLMfKTc_jigOKQ_eSG-19" value="" style="ellipse;whiteSpace=wrap;html=1;aspect=fixed;fillColor=#f5f5f5;strokeColor=#666666;fontColor=#333333;" vertex="1" parent="1">
          <mxGeometry x="350" y="500" width="20" height="20" as="geometry" />
        </mxCell>
        <mxCell id="UTzLMfKTc_jigOKQ_eSG-26" value="" style="endArrow=classic;html=1;rounded=0;fillColor=#e1d5e7;strokeColor=#9673a6;" edge="1" parent="1">
          <mxGeometry width="50" height="50" relative="1" as="geometry">
            <mxPoint x="450" y="450" as="sourcePoint" />
            <mxPoint x="470" y="550" as="targetPoint" />
          </mxGeometry>
        </mxCell>
        <mxCell id="UTzLMfKTc_jigOKQ_eSG-29" value="" style="ellipse;whiteSpace=wrap;html=1;aspect=fixed;fillColor=#d5e8d4;strokeColor=#82b366;" vertex="1" parent="1">
          <mxGeometry x="480" y="340" width="20" height="20" as="geometry" />
        </mxCell>
        <mxCell id="UTzLMfKTc_jigOKQ_eSG-30" value="" style="endArrow=classic;html=1;rounded=0;fillColor=#e1d5e7;strokeColor=#9673a6;" edge="1" parent="1">
          <mxGeometry width="50" height="50" relative="1" as="geometry">
            <mxPoint x="460" y="410" as="sourcePoint" />
            <mxPoint x="480" y="370" as="targetPoint" />
          </mxGeometry>
        </mxCell>
        <mxCell id="UTzLMfKTc_jigOKQ_eSG-32" value="" style="ellipse;whiteSpace=wrap;html=1;aspect=fixed;fillColor=#d5e8d4;strokeColor=#82b366;" vertex="1" parent="1">
          <mxGeometry x="670" y="340" width="20" height="20" as="geometry" />
        </mxCell>
        <mxCell id="UTzLMfKTc_jigOKQ_eSG-34" value="release/V0.1.0" style="line;strokeWidth=2;html=1;strokeColor=#82b366;fillColor=#d5e8d4;verticalAlign=middle;spacingLeft=20;align=left;spacingRight=0;labelBackgroundColor=none;spacingBottom=25;" vertex="1" parent="1">
          <mxGeometry x="500" y="345" width="170" height="10" as="geometry" />
        </mxCell>
        <mxCell id="UTzLMfKTc_jigOKQ_eSG-31" value="" style="ellipse;whiteSpace=wrap;html=1;aspect=fixed;fillColor=#d5e8d4;strokeColor=#82b366;" vertex="1" parent="1">
          <mxGeometry x="620" y="340" width="20" height="20" as="geometry" />
        </mxCell>
        <mxCell id="UTzLMfKTc_jigOKQ_eSG-35" value="" style="endArrow=classic;html=1;rounded=0;fillColor=#d5e8d4;strokeColor=#82b366;" edge="1" parent="1">
          <mxGeometry width="50" height="50" relative="1" as="geometry">
            <mxPoint x="680" y="330" as="sourcePoint" />
            <mxPoint x="700" y="230" as="targetPoint" />
          </mxGeometry>
        </mxCell>
        <mxCell id="UTzLMfKTc_jigOKQ_eSG-36" value="" style="ellipse;whiteSpace=wrap;html=1;aspect=fixed;fillColor=#dae8fc;strokeColor=#6c8ebf;" vertex="1" parent="1">
          <mxGeometry x="690" y="200" width="20" height="20" as="geometry" />
        </mxCell>
        <mxCell id="UTzLMfKTc_jigOKQ_eSG-37" value="" style="ellipse;whiteSpace=wrap;html=1;aspect=fixed;fillColor=#ffe6cc;strokeColor=#d79b00;" vertex="1" parent="1">
          <mxGeometry x="730" y="120" width="20" height="20" as="geometry" />
        </mxCell>
        <mxCell id="UTzLMfKTc_jigOKQ_eSG-38" value="" style="ellipse;whiteSpace=wrap;html=1;aspect=fixed;fillColor=#ffe6cc;strokeColor=#d79b00;" vertex="1" parent="1">
          <mxGeometry x="840" y="120" width="20" height="20" as="geometry" />
        </mxCell>
        <mxCell id="UTzLMfKTc_jigOKQ_eSG-39" value="" style="endArrow=classic;html=1;rounded=0;fillColor=#dae8fc;strokeColor=#6c8ebf;" edge="1" parent="1">
          <mxGeometry width="50" height="50" relative="1" as="geometry">
            <mxPoint x="710" y="190" as="sourcePoint" />
            <mxPoint x="730" y="150" as="targetPoint" />
          </mxGeometry>
        </mxCell>
        <mxCell id="UTzLMfKTc_jigOKQ_eSG-40" value="hotfix/hf1" style="line;strokeWidth=2;html=1;strokeColor=#d79b00;fillColor=#ffe6cc;verticalAlign=middle;align=center;labelBackgroundColor=none;spacingBottom=25;" vertex="1" parent="1">
          <mxGeometry x="750" y="125" width="90" height="10" as="geometry" />
        </mxCell>
        <mxCell id="UTzLMfKTc_jigOKQ_eSG-41" value="" style="ellipse;whiteSpace=wrap;html=1;aspect=fixed;fillColor=#dae8fc;strokeColor=#6c8ebf;" vertex="1" parent="1">
          <mxGeometry x="880" y="200" width="20" height="20" as="geometry" />
        </mxCell>
        <mxCell id="UTzLMfKTc_jigOKQ_eSG-42" value="" style="endArrow=classic;html=1;rounded=0;fillColor=#ffe6cc;strokeColor=#d79b00;exitX=0.77;exitY=0.917;exitDx=0;exitDy=0;exitPerimeter=0;" edge="1" parent="1" source="UTzLMfKTc_jigOKQ_eSG-68">
          <mxGeometry width="50" height="50" relative="1" as="geometry">
            <mxPoint x="860" y="140" as="sourcePoint" />
            <mxPoint x="880" y="190" as="targetPoint" />
          </mxGeometry>
        </mxCell>
        <mxCell id="UTzLMfKTc_jigOKQ_eSG-43" value="" style="ellipse;whiteSpace=wrap;html=1;aspect=fixed;fillColor=#e1d5e7;strokeColor=#9673a6;" vertex="1" parent="1">
          <mxGeometry x="710" y="420" width="20" height="20" as="geometry" />
        </mxCell>
        <mxCell id="UTzLMfKTc_jigOKQ_eSG-44" value="" style="endArrow=classic;html=1;rounded=0;fillColor=#d5e8d4;strokeColor=#82b366;" edge="1" parent="1">
          <mxGeometry width="50" height="50" relative="1" as="geometry">
            <mxPoint x="690" y="370" as="sourcePoint" />
            <mxPoint x="710" y="410" as="targetPoint" />
          </mxGeometry>
        </mxCell>
        <mxCell id="UTzLMfKTc_jigOKQ_eSG-45" value="" style="ellipse;whiteSpace=wrap;html=1;aspect=fixed;fillColor=#e1d5e7;strokeColor=#9673a6;" vertex="1" parent="1">
          <mxGeometry x="900" y="420" width="20" height="20" as="geometry" />
        </mxCell>
        <mxCell id="UTzLMfKTc_jigOKQ_eSG-46" value="" style="endArrow=classic;html=1;rounded=0;fillColor=#dae8fc;strokeColor=#6c8ebf;" edge="1" parent="1">
          <mxGeometry width="50" height="50" relative="1" as="geometry">
            <mxPoint x="890" y="230" as="sourcePoint" />
            <mxPoint x="910" y="410" as="targetPoint" />
          </mxGeometry>
        </mxCell>
        <mxCell id="UTzLMfKTc_jigOKQ_eSG-47" value="" style="ellipse;whiteSpace=wrap;html=1;aspect=fixed;fillColor=#e1d5e7;strokeColor=#9673a6;" vertex="1" parent="1">
          <mxGeometry x="660" y="420" width="20" height="20" as="geometry" />
        </mxCell>
        <mxCell id="UTzLMfKTc_jigOKQ_eSG-48" value="" style="endArrow=classic;html=1;rounded=0;fillColor=#d5e8d4;strokeColor=#82b366;" edge="1" parent="1">
          <mxGeometry width="50" height="50" relative="1" as="geometry">
            <mxPoint x="640" y="370" as="sourcePoint" />
            <mxPoint x="660" y="410" as="targetPoint" />
          </mxGeometry>
        </mxCell>
        <mxCell id="UTzLMfKTc_jigOKQ_eSG-50" value="" style="endArrow=classic;html=1;rounded=0;fillColor=#e1d5e7;strokeColor=#9673a6;" edge="1" parent="1">
          <mxGeometry width="50" height="50" relative="1" as="geometry">
            <mxPoint x="670" y="450" as="sourcePoint" />
            <mxPoint x="690" y="550" as="targetPoint" />
          </mxGeometry>
        </mxCell>
        <mxCell id="UTzLMfKTc_jigOKQ_eSG-52" value="" style="endArrow=classic;html=1;rounded=0;fillColor=#e1d5e7;strokeColor=#9673a6;" edge="1" parent="1">
          <mxGeometry width="50" height="50" relative="1" as="geometry">
            <mxPoint x="720" y="450" as="sourcePoint" />
            <mxPoint x="740" y="550" as="targetPoint" />
          </mxGeometry>
        </mxCell>
        <mxCell id="UTzLMfKTc_jigOKQ_eSG-54" value="" style="endArrow=classic;html=1;rounded=0;fillColor=#e1d5e7;strokeColor=#9673a6;" edge="1" parent="1">
          <mxGeometry width="50" height="50" relative="1" as="geometry">
            <mxPoint x="910" y="450" as="sourcePoint" />
            <mxPoint x="930" y="550" as="targetPoint" />
          </mxGeometry>
        </mxCell>
        <mxCell id="UTzLMfKTc_jigOKQ_eSG-55" value="" style="ellipse;whiteSpace=wrap;html=1;aspect=fixed;fillColor=#f5f5f5;strokeColor=#666666;fontColor=#333333;" vertex="1" parent="1">
          <mxGeometry x="970" y="560" width="20" height="20" as="geometry" />
        </mxCell>
        <mxCell id="UTzLMfKTc_jigOKQ_eSG-56" value="" style="endArrow=classic;html=1;rounded=0;fillColor=#f5f5f5;strokeColor=#666666;" edge="1" parent="1">
          <mxGeometry width="50" height="50" relative="1" as="geometry">
            <mxPoint x="980" y="550" as="sourcePoint" />
            <mxPoint x="1000" y="450" as="targetPoint" />
          </mxGeometry>
        </mxCell>
        <mxCell id="UTzLMfKTc_jigOKQ_eSG-57" value="" style="ellipse;whiteSpace=wrap;html=1;aspect=fixed;fillColor=#e1d5e7;strokeColor=#9673a6;" vertex="1" parent="1">
          <mxGeometry x="990" y="420" width="20" height="20" as="geometry" />
        </mxCell>
        <mxCell id="UTzLMfKTc_jigOKQ_eSG-58" value="&lt;font style=&quot;font-size: 12px;&quot;&gt;V0.1.0&lt;/font&gt;" style="text;html=1;align=center;verticalAlign=middle;whiteSpace=wrap;rounded=0;rotation=45;fontSize=12;" vertex="1" parent="1">
          <mxGeometry x="700" y="230" width="40" height="10" as="geometry" />
        </mxCell>
        <mxCell id="UTzLMfKTc_jigOKQ_eSG-59" value="&lt;font style=&quot;font-size: 12px;&quot;&gt;V0.1.1&lt;/font&gt;" style="text;html=1;align=center;verticalAlign=middle;whiteSpace=wrap;rounded=0;rotation=45;fontSize=12;" vertex="1" parent="1">
          <mxGeometry x="890" y="230" width="40" height="10" as="geometry" />
        </mxCell>
        <mxCell id="UTzLMfKTc_jigOKQ_eSG-62" value="&amp;nbsp;feature/f1&amp;nbsp; " style="line;strokeWidth=2;html=1;strokeColor=#666666;fillColor=#f5f5f5;fontColor=#333333;verticalAlign=middle;spacingLeft=54;labelBorderColor=none;align=left;spacingBottom=25;labelBackgroundColor=none;" vertex="1" parent="1">
          <mxGeometry x="240" y="565" width="730" height="10" as="geometry" />
        </mxCell>
        <mxCell id="UTzLMfKTc_jigOKQ_eSG-25" value="" style="ellipse;whiteSpace=wrap;html=1;aspect=fixed;fillColor=#f5f5f5;strokeColor=#666666;fontColor=#333333;" vertex="1" parent="1">
          <mxGeometry x="460" y="560" width="20" height="20" as="geometry" />
        </mxCell>
        <mxCell id="UTzLMfKTc_jigOKQ_eSG-49" value="" style="ellipse;whiteSpace=wrap;html=1;aspect=fixed;fillColor=#f5f5f5;strokeColor=#666666;fontColor=#333333;" vertex="1" parent="1">
          <mxGeometry x="680" y="560" width="20" height="20" as="geometry" />
        </mxCell>
        <mxCell id="UTzLMfKTc_jigOKQ_eSG-51" value="" style="ellipse;whiteSpace=wrap;html=1;aspect=fixed;fillColor=#f5f5f5;strokeColor=#666666;fontColor=#333333;" vertex="1" parent="1">
          <mxGeometry x="730" y="560" width="20" height="20" as="geometry" />
        </mxCell>
        <mxCell id="UTzLMfKTc_jigOKQ_eSG-53" value="" style="ellipse;whiteSpace=wrap;html=1;aspect=fixed;fillColor=#f5f5f5;strokeColor=#666666;fontColor=#333333;" vertex="1" parent="1">
          <mxGeometry x="920" y="560" width="20" height="20" as="geometry" />
        </mxCell>
        <mxCell id="UTzLMfKTc_jigOKQ_eSG-64" value="bugfix1" style="text;html=1;align=center;verticalAlign=middle;whiteSpace=wrap;rounded=0;rotation=-45;" vertex="1" parent="1">
          <mxGeometry x="630.21" y="320.52" width="48.54" height="10" as="geometry" />
        </mxCell>
        <mxCell id="UTzLMfKTc_jigOKQ_eSG-66" value="bugfix2" style="text;html=1;align=center;verticalAlign=middle;whiteSpace=wrap;rounded=0;rotation=-45;" vertex="1" parent="1">
          <mxGeometry x="681.46" y="320.52" width="48.54" height="10" as="geometry" />
        </mxCell>
        <mxCell id="UTzLMfKTc_jigOKQ_eSG-72" value="&amp;nbsp;" style="text;whiteSpace=wrap;html=1;" vertex="1" parent="1">
          <mxGeometry x="340" y="190" width="40" height="40" as="geometry" />
        </mxCell>
      </root>
    </mxGraphModel>
  </diagram>
</mxfile>
